<?xml version="1.0" encoding="utf-8"?>
<!-- Generator: Adobe Illustrator 16.0.0, SVG Export Plug-In . SVG Version: 6.00 Build 0)  -->
<!DOCTYPE svg PUBLIC "-//W3C//DTD SVG 1.1//EN" "http://www.w3.org/Graphics/SVG/1.1/DTD/svg11.dtd">
<svg version="1.1" xmlns="http://www.w3.org/2000/svg" xmlns:xlink="http://www.w3.org/1999/xlink" x="0px" y="0px"
	 width="491.116px" height="420.914px" viewBox="0 0 491.116 420.914" enable-background="new 0 0 491.116 420.914"
	 xml:space="preserve">
<g id="レイヤー_1">
	<rect fill="#FFFFFF" width="491.116" height="420.914"/>
	<g>
		<circle fill="#FEF5EC" cx="49.955" cy="42.091" r="25.14"/>
		<rect x="125.843" y="19.756" fill="#FEF5EC" width="44.671" height="44.671"/>
		<polygon fill="#FEF5EC" points="315.215,67.562 344.625,16.621 374.035,67.562 		"/>
		<polygon fill="#FEF5EC" points="442.848,14.88 451.689,32.794 471.459,35.667 457.153,49.611 460.53,69.301 442.848,60.005 
			425.165,69.301 428.542,49.611 414.236,35.667 434.006,32.794 		"/>
		<polygon fill="#FEF5EC" points="229.57,67.992 219.168,35.977 246.402,16.19 273.635,35.977 263.233,67.992 		"/>
		<circle fill="#FEF5EC" cx="442.695" cy="126.274" r="25.141"/>
		<rect x="27.468" y="103.938" fill="#FEF5EC" width="44.671" height="44.671"/>
		<polygon fill="#FEF5EC" points="216.839,151.744 246.25,100.804 275.66,151.744 		"/>
		<polygon fill="#FEF5EC" points="344.473,99.063 353.314,116.977 373.084,119.85 358.778,133.794 362.155,153.484 344.473,144.188 
			326.79,153.484 330.167,133.794 315.861,119.85 335.631,116.977 		"/>
		<polygon fill="#FEF5EC" points="131.195,152.175 120.793,120.159 148.027,100.373 175.26,120.159 164.858,152.175 		"/>
		<circle fill="#FEF5EC" cx="346.121" cy="210.458" r="25.141"/>
		<rect x="422.008" y="188.122" fill="#FEF5EC" width="44.672" height="44.671"/>
		<polygon fill="#FEF5EC" points="118.862,235.928 148.272,184.987 177.682,235.928 		"/>
		<polygon fill="#FEF5EC" points="246.495,183.247 255.336,201.161 275.105,204.033 260.801,217.978 264.178,237.668 
			246.495,228.371 228.812,237.668 232.189,217.978 217.884,204.033 237.654,201.161 		"/>
		<polygon fill="#FEF5EC" points="33.218,236.358 22.815,204.343 50.049,184.557 77.283,204.343 66.881,236.358 		"/>
		<circle fill="#FEF5EC" cx="246.762" cy="294.639" r="25.141"/>
		<rect x="322.648" y="272.305" fill="#FEF5EC" width="44.672" height="44.67"/>
		<polygon fill="#FEF5EC" points="20.549,320.109 49.959,269.17 79.37,320.109 		"/>
		<polygon fill="#FEF5EC" points="148.183,267.428 157.024,285.342 176.793,288.215 162.488,302.16 165.865,321.85 148.183,312.553 
			130.5,321.85 133.877,302.16 119.572,288.215 139.341,285.342 		"/>
		<polygon fill="#FEF5EC" points="426.377,320.541 415.975,288.525 443.208,268.738 470.441,288.525 460.039,320.541 		"/>
		<circle fill="#FEF5EC" cx="149.48" cy="378.822" r="25.14"/>
		<rect x="225.368" y="356.488" fill="#FEF5EC" width="44.671" height="44.67"/>
		<polygon fill="#FEF5EC" points="414.739,404.293 444.149,353.354 473.56,404.293 		"/>
		<polygon fill="#FEF5EC" points="49.854,351.611 58.696,369.525 78.465,372.398 64.16,386.344 67.537,406.033 49.854,396.736 
			32.172,406.033 35.549,386.344 21.244,372.398 41.013,369.525 		"/>
		<polygon fill="#FEF5EC" points="329.096,404.725 318.693,372.709 345.927,352.922 373.16,372.709 362.758,404.725 		"/>
	</g>
</g>
<g id="レイヤー_2">
	<g id="andosan.co.jp">
		<rect x="211.065" y="49.676" fill="none" width="1246.367" height="98.934"/>
		
			<text transform="matrix(0.85 0 0 1 809.0254 70.7959)" fill="#FFFFFF" font-family="'KozGoPr6N-Heavy-83pv-RKSJ-H'" font-size="24">.co.jp</text>
		<rect x="102.066" y="26.676" fill="none" width="1246.367" height="98.934"/>
		
			<text transform="matrix(0.85 0 0 1 642.3535 70.6758)" fill="#FFFFFF" font-family="'KozGoPr6N-Heavy-83pv-RKSJ-H'" font-size="50">andosan</text>
	</g>
</g>
</svg>
