<?xml version="1.0" encoding="utf-8"?>
<!-- Generator: Adobe Illustrator 19.1.0, SVG Export Plug-In . SVG Version: 6.00 Build 0)  -->
<svg version="1.1" id="レイヤー_1" xmlns="http://www.w3.org/2000/svg" xmlns:xlink="http://www.w3.org/1999/xlink" x="0px"
	 y="0px" viewBox="0 0 215.2 57.3" style="enable-background:new 0 0 215.2 57.3;" xml:space="preserve">
<style type="text/css">
	.st0{fill:#FFFFFF;}
	.st1{fill:#E78F36;}
</style>
<g>
	<path class="st0" d="M166.6,38.1c0-1.5,0.9-2.6,2.1-2.6c1.2,0,2.1,1,2.1,2.6c0,1.6-0.8,2.6-2.1,2.6
		C167.5,40.7,166.6,39.6,166.6,38.1z"/>
	<path class="st0" d="M180,40.2c-0.5,0.3-1.5,0.5-2.6,0.5c-3.4,0-5.6-2.5-5.6-6.8c0-4.1,2.2-7.2,6.1-7.2c0.9,0,1.8,0.2,2.3,0.4
		l-0.5,3.2c-0.4-0.1-0.9-0.3-1.6-0.3c-1.6,0-2.7,1.5-2.7,3.7c0,2.4,1.1,3.7,2.7,3.7c0.6,0,1.2-0.1,1.6-0.3L180,40.2z"/>
	<path class="st0" d="M191.5,33.6c0,5.3-2.9,7.1-5.4,7.1c-3.2,0-5.4-2.6-5.4-6.9c0-4.5,2.3-7.1,5.5-7.1
		C189.5,26.6,191.5,29.5,191.5,33.6z M186.1,29.7c-1.3,0-1.8,2.1-1.8,3.9c0,2.3,0.6,4,1.8,4c1.2,0,1.7-1.8,1.7-4
		C187.9,31.7,187.4,29.7,186.1,29.7z"/>
	<path class="st0" d="M193,38.1c0-1.5,0.9-2.6,2.1-2.6c1.2,0,2.1,1,2.1,2.6c0,1.6-0.8,2.6-2.1,2.6C193.8,40.7,193,39.6,193,38.1z"/>
	<path class="st0" d="M202.5,39c0,2.8-0.3,7.1-5.7,7.1l-0.3-3.3c2.2-0.3,2.4-1.2,2.4-4.7V26.9h3.6V39z M200.7,25.4
		c-1.1,0-1.8-0.9-1.8-2.1c0-1.3,0.8-2.2,1.9-2.2c1.1,0,1.8,0.9,1.8,2.2C202.6,24.6,201.8,25.4,200.7,25.4z"/>
	<path class="st0" d="M207.8,28.6c0.7-1.2,1.8-2,3.2-2c2.5,0,4.3,2.9,4.3,6.9c0,4.9-2.3,7.1-4.6,7.1c-1.2,0-2-0.6-2.4-1.4h-0.1v6.5
		h-3.6V31.4c0-1.7,0-3.2-0.1-4.5h3.1L207.8,28.6L207.8,28.6z M208.1,35c0,1.4,0.7,2.4,1.6,2.4c1.3,0,1.9-1.6,1.9-3.7
		c0-2.3-0.7-3.6-1.9-3.6c-0.8,0-1.6,0.9-1.6,2.3V35z"/>
</g>
<g>
	<path class="st0" d="M20.2,33.7c0,2.5,0.1,5,0.4,6.7h-6.7l-0.4-2.7h-0.1c-1.4,2.2-3.7,3.2-6.2,3.2C2.8,40.9,0,37,0,32.2
		c0-7.5,5.7-10.7,12.7-10.7c0-2.1-0.8-3.7-3.8-3.7c-2.3,0-4.4,0.8-5.9,1.9L1.6,14c1.5-1,4.6-2.4,8.8-2.4c7.9,0,9.9,5.9,9.9,12.2
		V33.7z M13,27c-3.1,0-5.7,1-5.7,4.3c0,2.3,1.2,3.3,2.5,3.3c1.5,0,3.2-1.3,3.2-4V27z"/>
	<path class="st0" d="M45.6,40.3h-7.5V24c0-3-0.8-5.1-2.9-5.1c-1.6,0-3.2,1.4-3.2,5v16.5h-7.5V21.2c0-3.4-0.1-6.4-0.2-9h6.4l0.4,3.6
		h0.1c1.1-1.9,3.3-4.1,6.6-4.1c5,0,7.7,4.2,7.7,11.6V40.3z"/>
	<path class="st0" d="M70.9,31.7c0,3.1,0.1,6.4,0.2,8.6h-6.5l-0.3-3.7H64c-1.3,2.7-3.7,4.2-6.3,4.2c-5.5,0-9.1-6.2-9.1-14.5
		c0-9.6,4.4-14.8,9.4-14.8c2.5,0,4.4,1.2,5.2,2.9h0.1V0h7.5V31.7z M63.4,23.7c0-3.9-2-5.1-3.2-5.1c-2.7,0-4,3.5-4,7.8
		c0,4.9,1.6,7.4,3.9,7.4c1.4,0,3.3-1.1,3.3-4.9V23.7z"/>
	<path class="st0" d="M96.3,26.1c0,11-6,14.8-11.2,14.8c-6.6,0-11.2-5.4-11.2-14.5c0-9.5,4.8-14.8,11.4-14.8
		C92.2,11.6,96.3,17.6,96.3,26.1z M85.2,18c-2.8,0-3.7,4.3-3.7,8.2c0,4.7,1.1,8.3,3.7,8.3c2.4,0,3.6-3.8,3.6-8.3
		C88.7,22.1,87.7,18,85.2,18z"/>
	<path class="st0" d="M112.8,19.3c-1-0.6-2.7-1.4-4.4-1.4c-1.7,0-2.5,0.8-2.5,2.1c0,1.1,0.7,1.9,3.4,3.1c4.2,2.1,5.7,5,5.8,8.6
		c0,5.8-3.7,9.2-9.8,9.2c-2.7,0-5.4-0.8-6.9-1.9l1.3-6.3c1.2,0.9,3.7,1.9,5.6,1.9c1.9,0,2.8-0.8,2.8-2.1s-0.7-2.1-3.1-3.2
		c-4.6-2.2-6-5.4-6-8.3c0-5.3,3.6-9.3,9.2-9.3c2.5,0,4.6,0.7,6,1.5L112.8,19.3z"/>
	<path class="st0" d="M136.8,33.7c0,2.5,0.1,5,0.4,6.7h-6.7l-0.4-2.7h-0.1c-1.4,2.2-3.7,3.2-6.2,3.2c-4.3,0-7.2-3.9-7.2-8.7
		c0-7.5,5.7-10.7,12.7-10.7c0-2.1-0.8-3.7-3.8-3.7c-2.3,0-4.4,0.8-5.9,1.9l-1.4-5.7c1.5-1,4.6-2.4,8.8-2.4c7.9,0,9.9,5.9,9.9,12.2
		V33.7z M129.5,27c-3.1,0-5.7,1-5.7,4.3c0,2.3,1.2,3.3,2.5,3.3c1.5,0,3.2-1.3,3.2-4V27z"/>
	<path class="st0" d="M162.1,40.3h-7.5V24c0-3-0.8-5.1-2.9-5.1c-1.6,0-3.2,1.4-3.2,5v16.5H141V21.2c0-3.4-0.1-6.4-0.2-9h6.4l0.4,3.6
		h0.1c1.1-1.9,3.3-4.1,6.6-4.1c5,0,7.7,4.2,7.7,11.6V40.3z"/>
</g>
<g>
	<path class="st1" d="M59.9,54.4c-22.6,0-41.3-4.9-43.7-11.1c-0.2,0.5-0.3,0.9-0.3,1.4c0,6.9,19.7,12.6,44,12.6
		c24.3,0,44-5.6,44-12.6c0-0.5-0.1-1-0.3-1.4C101.2,49.5,82.5,54.4,59.9,54.4z"/>
</g>
<g>
	<path class="st1" d="M103.5,44.9c2.6,2.5,1.7,7.8-2,12.4c0.4-0.3,0.8-0.7,1.1-1.1c4.5-4.8,5.9-10.9,3-13.6c-2.9-2.7-8.9-1-13.4,3.8
		c-0.4,0.4-0.7,0.8-1,1.2C95.6,43.6,100.9,42.4,103.5,44.9z"/>
</g>
<g>
	<ellipse class="st1" cx="103.7" cy="49.1" rx="0.9" ry="1.8"/>
</g>
</svg>
