<?xml version="1.0" encoding="utf-8"?>
<!-- Generator: Adobe Illustrator 19.2.1, SVG Export Plug-In . SVG Version: 6.00 Build 0)  -->
<svg version="1.1" id="レイヤー_1" xmlns="http://www.w3.org/2000/svg" xmlns:xlink="http://www.w3.org/1999/xlink" x="0px"
	 y="0px" viewBox="0 0 236 75.6" style="enable-background:new 0 0 236 75.6;" xml:space="preserve">
<style type="text/css">
	.st0{fill:none;}
	.st1{enable-background:new    ;}
	.st2{fill:#FFFFFF;}
	.st3{fill:#E89036;}
</style>
<g id="andosan.co.jp">
	<g>
		<rect x="-421.4" y="26.2" class="st0" width="1246.4" height="98.9"/>
	</g>
	<g class="st1">
		<path class="st2" d="M177.7,44.9c0-1.5,0.9-2.6,2.1-2.6c1.2,0,2.1,1,2.1,2.6c0,1.6-0.8,2.6-2.1,2.6
			C178.5,47.6,177.7,46.5,177.7,44.9z"/>
		<path class="st2" d="M191.5,47c-0.5,0.3-1.5,0.5-2.6,0.5c-3.4,0-5.6-2.5-5.6-6.8c0-4.1,2.2-7.2,6.1-7.2c0.9,0,1.8,0.2,2.3,0.4
			l-0.5,3.2c-0.4-0.1-0.9-0.3-1.6-0.3c-1.6,0-2.7,1.5-2.7,3.7c0,2.4,1.1,3.7,2.7,3.7c0.6,0,1.2-0.1,1.6-0.3L191.5,47z"/>
		<path class="st2" d="M203.4,40.5c0,5.3-2.9,7.1-5.4,7.1c-3.2,0-5.4-2.6-5.4-6.9c0-4.5,2.3-7.1,5.5-7.1
			C201.4,33.5,203.4,36.4,203.4,40.5z M198,36.6c-1.3,0-1.8,2.1-1.8,3.9c0,2.3,0.6,4,1.8,4c1.2,0,1.7-1.8,1.7-4
			C199.7,38.5,199.2,36.6,198,36.6z"/>
		<path class="st2" d="M205.3,44.9c0-1.5,0.9-2.6,2.1-2.6c1.2,0,2.1,1,2.1,2.6c0,1.6-0.8,2.6-2.1,2.6
			C206.1,47.6,205.3,46.5,205.3,44.9z"/>
		<path class="st2" d="M215.2,45.9c0,2.8-0.3,7.1-5.7,7.1l-0.3-3.3c2.2-0.3,2.4-1.2,2.4-4.7V33.8h3.6V45.9z M213.4,32.3
			c-1.1,0-1.8-0.9-1.8-2.1c0-1.3,0.8-2.2,1.9-2.2s1.8,0.9,1.8,2.2C215.2,31.4,214.5,32.3,213.4,32.3z"/>
		<path class="st2" d="M220.9,35.5c0.7-1.2,1.8-2,3.2-2c2.5,0,4.3,2.9,4.3,6.9c0,4.9-2.3,7.1-4.6,7.1c-1.2,0-2-0.6-2.4-1.4h-0.1v6.5
			h-3.6V38.2c0-1.7,0-3.2-0.1-4.5h3.1L220.9,35.5L220.9,35.5z M221.2,41.9c0,1.4,0.7,2.4,1.6,2.4c1.3,0,1.9-1.6,1.9-3.7
			c0-2.3-0.7-3.6-1.9-3.6c-0.8,0-1.6,0.9-1.6,2.3V41.9z"/>
	</g>
	<g>
		<rect x="-530.4" y="3.2" class="st0" width="1246.4" height="98.9"/>
	</g>
	<g class="st1">
		<path class="st2" d="M31.3,40.5c0,2.5,0.1,5,0.4,6.7h-6.7l-0.4-2.7h-0.1c-1.4,2.2-3.7,3.2-6.2,3.2c-4.3,0-7.2-3.9-7.2-8.7
			c0-7.5,5.7-10.7,12.7-10.7c0-2.1-0.8-3.7-3.8-3.7c-2.3,0-4.4,0.8-5.9,1.9l-1.4-5.7c1.5-1,4.6-2.4,8.8-2.4c7.9,0,9.9,5.9,9.9,12.2
			V40.5z M24,33.9c-3.1,0-5.7,1-5.7,4.3c0,2.3,1.2,3.3,2.5,3.3c1.5,0,3.2-1.3,3.2-4V33.9z"/>
		<path class="st2" d="M57.5,47.2H50V30.8c0-3-0.8-5.1-2.9-5.1c-1.6,0-3.2,1.4-3.2,5v16.5h-7.5V28c0-3.4-0.1-6.4-0.2-9h6.4l0.4,3.6
			h0.1c1.1-1.9,3.3-4.1,6.6-4.1c5,0,7.7,4.2,7.7,11.6V47.2z"/>
		<path class="st2" d="M83.6,38.6c0,3.1,0.1,6.4,0.2,8.6h-6.5l-0.3-3.7h-0.1c-1.3,2.7-3.7,4.2-6.3,4.2c-5.5,0-9.1-6.2-9.1-14.5
			c0-9.6,4.4-14.8,9.4-14.8c2.5,0,4.4,1.2,5.2,2.9h0.1V6.9h7.5V38.6z M76.2,30.5c0-3.9-2-5.1-3.2-5.1c-2.7,0-4,3.5-4,7.8
			c0,4.9,1.6,7.4,3.9,7.4c1.4,0,3.3-1,3.3-4.9V30.5z"/>
		<path class="st2" d="M109.9,32.9c0,11-6,14.8-11.2,14.8c-6.6,0-11.2-5.4-11.2-14.5c0-9.5,4.8-14.8,11.4-14.8
			C105.8,18.5,109.9,24.5,109.9,32.9z M98.8,24.9c-2.8,0-3.7,4.3-3.7,8.2c0,4.7,1.1,8.3,3.7,8.3c2.4,0,3.6-3.8,3.6-8.3
			C102.3,28.9,101.3,24.9,98.8,24.9z"/>
		<path class="st2" d="M127.2,26.1c-1-0.6-2.7-1.4-4.4-1.4c-1.7,0-2.5,0.8-2.5,2.1c0,1.1,0.7,1.9,3.4,3.1c4.2,2.1,5.7,5,5.8,8.6
			c0,5.8-3.7,9.2-9.8,9.2c-2.7,0-5.4-0.8-6.9-1.8l1.3-6.3c1.2,0.8,3.7,1.8,5.6,1.8c1.9,0,2.8-0.8,2.8-2.1c0-1.4-0.7-2.1-3.1-3.2
			c-4.6-2.2-6-5.4-6-8.3c0-5.3,3.6-9.3,9.2-9.3c2.5,0,4.6,0.7,6,1.5L127.2,26.1z"/>
		<path class="st2" d="M152.1,40.5c0,2.5,0.1,5,0.4,6.7h-6.7l-0.4-2.7h-0.1c-1.4,2.2-3.7,3.2-6.2,3.2c-4.3,0-7.2-3.9-7.2-8.7
			c0-7.5,5.7-10.7,12.7-10.7c0-2.1-0.8-3.7-3.8-3.7c-2.3,0-4.4,0.8-5.9,1.9l-1.4-5.7c1.5-1,4.6-2.4,8.8-2.4c7.9,0,9.9,5.9,9.9,12.2
			V40.5z M144.8,33.9c-3.1,0-5.7,1-5.7,4.3c0,2.3,1.2,3.3,2.5,3.3c1.5,0,3.2-1.3,3.2-4V33.9z"/>
		<path class="st2" d="M178.2,47.2h-7.5V30.8c0-3-0.8-5.1-2.9-5.1c-1.6,0-3.2,1.4-3.2,5v16.5h-7.5V28c0-3.4-0.1-6.4-0.2-9h6.4
			l0.4,3.6h0.1c1.1-1.9,3.3-4.1,6.6-4.1c5,0,7.7,4.2,7.7,11.6V47.2z"/>
	</g>
</g>
<g id="atoz">
	<g>
		<path class="st3" d="M113.8,52.6c-0.2-0.2-0.5-0.1-0.9,0.1c-0.1,0.1-0.2,0.1-0.3,0.2c-0.1,0.1-0.2,0.3-0.4,0.4
			c-4.7,4.5-18.2,8-34.8,8.8c0,0-0.1,0-0.1,0c-0.5,0-1.1,0-1.6,0.1c-0.1,0-0.3,0-0.4,0c-0.5,0-0.9,0-1.4,0c-0.2,0-0.5,0-0.7,0
			c-0.4,0-0.8,0-1.2,0c-0.5,0-1,0-1.5,0c-0.1,0-0.3,0-0.4,0c-0.1,0-0.3,0-0.4,0c-0.5,0-1,0-1.5,0c-0.4,0-0.7,0-1.1,0
			c-0.3,0-0.5,0-0.8,0c-0.4,0-0.8,0-1.2,0c-0.2,0-0.4,0-0.6,0c-0.4,0-0.9,0-1.3-0.1c-0.2,0-0.3,0-0.5,0c-0.5,0-0.9,0-1.4-0.1
			c-0.1,0-0.2,0-0.3,0c-0.5,0-1-0.1-1.5-0.1c0,0-0.1,0-0.1,0c-3.4-0.2-6.7-0.6-9.8-1.1c0,0,0,0,0,0c-0.5-0.1-1-0.2-1.5-0.2
			c0,0,0,0-0.1,0c-0.5-0.1-1-0.2-1.5-0.3c0,0,0,0,0,0c-1.6-0.3-3.2-0.6-4.6-1c-0.7-0.2-1.4-0.3-2-0.5c-0.1,0-0.1,0-0.2,0
			c-0.3-0.1-0.6-0.2-1-0.3c-0.1,0-0.2-0.1-0.3-0.1c-0.3-0.1-0.6-0.2-0.8-0.3c-0.1,0-0.3-0.1-0.4-0.1c-0.2-0.1-0.5-0.2-0.7-0.2
			c-0.2-0.1-0.3-0.1-0.5-0.2c-0.2-0.1-0.4-0.2-0.6-0.2c-0.2-0.1-0.4-0.1-0.5-0.2c-0.2-0.1-0.4-0.1-0.5-0.2c-0.2-0.1-0.5-0.2-0.7-0.3
			c-0.1,0-0.2-0.1-0.3-0.1c-0.3-0.2-0.7-0.3-1-0.5c0,0-0.1,0-0.1,0c-0.3-0.1-0.6-0.3-0.8-0.4c-0.1,0-0.1-0.1-0.2-0.1
			c-0.2-0.1-0.5-0.3-0.7-0.4C30,55,30,55,29.9,55c-0.2-0.1-0.4-0.3-0.6-0.4c0,0-0.1-0.1-0.1-0.1c-0.2-0.2-0.4-0.3-0.6-0.5
			c0,0,0,0-0.1-0.1c-0.3-0.2-0.5-0.4-0.8-0.7c-0.1-0.1-0.3-0.3-0.4-0.4c-0.5-0.4-0.9-0.5-1.2-0.3C26,52.7,26,52.9,26,53.1
			c0,0,0,0.1,0,0.1c0,0.2,0.1,0.5,0.2,0.8c0.5,1.2,1.6,2.4,3.2,3.5c0,0,0.1,0,0.1,0.1c0.2,0.2,0.5,0.3,0.7,0.5
			c0.1,0,0.1,0.1,0.2,0.1c0.2,0.1,0.5,0.3,0.7,0.4c0.1,0.1,0.2,0.1,0.3,0.2c0.2,0.1,0.5,0.2,0.7,0.3c0.1,0.1,0.3,0.1,0.4,0.2
			c0.2,0.1,0.4,0.2,0.7,0.3c0.2,0.1,0.3,0.1,0.5,0.2c0.2,0.1,0.4,0.2,0.7,0.3c0.2,0.1,0.4,0.1,0.6,0.2c0.2,0.1,0.4,0.2,0.6,0.2
			c0.2,0.1,0.4,0.2,0.7,0.2c0.2,0.1,0.4,0.1,0.6,0.2c0.3,0.1,0.5,0.2,0.8,0.3c0.2,0,0.3,0.1,0.5,0.1c0.3,0.1,0.6,0.2,1,0.3
			c0.1,0,0.2,0.1,0.3,0.1c2.1,0.6,4.4,1.1,6.9,1.6c1.3,0.2,2.6,0.5,4,0.7c0,0,0.1,0,0.1,0c0.5,0.1,1.1,0.2,1.7,0.2
			c0.1,0,0.1,0,0.2,0c0.5,0.1,1.1,0.1,1.6,0.2c0.1,0,0.2,0,0.2,0c0.5,0.1,1.1,0.1,1.6,0.2c0.1,0,0.2,0,0.3,0
			c0.5,0.1,1.1,0.1,1.6,0.1c0.1,0,0.2,0,0.3,0c0.5,0,1.1,0.1,1.6,0.1c0.1,0,0.3,0,0.4,0c0.5,0,1.1,0.1,1.6,0.1c0.1,0,0.3,0,0.4,0
			c0.5,0,1.1,0.1,1.6,0.1c0.2,0,0.4,0,0.5,0c0.5,0,1,0,1.5,0.1c0.2,0,0.5,0,0.7,0c0.5,0,0.9,0,1.4,0c0.5,0,1,0,1.5,0
			c0.2,0,0.4,0,0.7,0c0,0,0,0,0,0s0,0,0,0c0.2,0,0.5,0,0.7,0c0.5,0,0.9,0,1.4,0c0.5,0,1.1,0,1.6,0c0.2,0,0.3,0,0.5,0
			c0.6,0,1.2,0,1.8-0.1c0.1,0,0.1,0,0.2,0c19.7-0.8,35.2-5.3,37.5-11c0.1-0.3,0.2-0.5,0.2-0.8C114,52.9,113.9,52.7,113.8,52.6z"/>
	</g>
	<g>
		<path class="st3" d="M116.7,49.7c-2.5-2.2-7.3-0.8-11.1,3.1c-0.1,0.1-0.2,0.2-0.3,0.3c-0.3,0.3-0.5,0.6-0.4,0.7c0,0,0.1,0,0.3-0.1
			c0.1-0.1,0.3-0.2,0.4-0.3c3.4-2.5,7-3.2,9.2-1.4c2.1,1.8,2.1,5.5,0.3,9.2c-0.1,0.3-0.2,0.5-0.4,0.8c-0.1,0.2-0.1,0.3,0,0.3
			c0.1,0,0.2,0,0.3-0.1c0.1-0.1,0.2-0.3,0.3-0.4C118.6,57.1,119.3,51.9,116.7,49.7z"/>
	</g>
</g>
</svg>
